<?xml version="1.0" encoding="UTF-8"?>
<svg id="Layer_2" data-name="Layer 2" xmlns="http://www.w3.org/2000/svg" viewBox="0 0 284.81 284.98">
  <g id="Layer_1-2" data-name="Layer 1">
    <g>
      <path fill="#e0e0e0" d="M241.22,243.95c-.07-1.33-2.51-6.53-3.28-8-6.38-12.16-17.34-21.22-30.06-26.09-14.21-5.44-29.94-8.85-44.34-13.96l.18-7.16c7.71-5.32,17.47-10.1,22.62-18.17,4.95-7.74,5.2-16.41,6.88-25.17,4.04-1.12,6.7-1.6,9.62-4.88,6.01-6.78,3.2-16.81-4.83-20.25,2.39-11.28,5.11-21.82,4.36-33.54-1.4-21.88-16.19-36.6-37.05-41.17-16.24-3.56-53.96-2.14-67.53,8.11-1.79,1.35-5.97,6.59-6.38,6.82-.54.31-1.89.03-2.8.32-17.4,5.45-11.53,30.95-7.89,43.94,1.48,5.3,3.48,10.44,5.48,15.55-12.46,6.69-8.62,23.74,5.25,24.83,1.44,7.21,1.7,15.5,4.95,22.17,4.99,10.24,15.71,15.16,24.42,21.65.59.98.73,5.14.37,6.2s-6.35,2.71-7.83,3.21c-12.34,4.12-26.39,7.26-38.28,12.1-15.25,6.22-26.11,18.26-32.02,33.49-.04-.07-.91-.15-1.45-.69C-36.1,164.98.31,31.18,107.14,4.47c105.37-26.35,199.31,68.03,173.28,173.34-5.69,23-19.81,48.88-37.28,64.95-.59.54-.99,1.2-1.93,1.19Z"/>
      <path fill="#9e9e9e" d="M43.05,243.95c5.92-15.23,16.77-27.27,32.02-33.49,11.9-4.85,25.95-7.99,38.28-12.1,1.48-.49,7.46-2.12,7.83-3.21s.22-5.21-.37-6.2c-8.71-6.49-19.42-11.42-24.42-21.65-3.25-6.67-3.51-14.96-4.95-22.17-13.87-1.1-17.71-18.14-5.25-24.83-2-5.11-4-10.26-5.48-15.55-3.64-12.99-9.51-38.49,7.89-43.94.91-.29,2.26-.01,2.8-.32.41-.23,4.59-5.47,6.38-6.82,13.56-10.25,51.29-11.67,67.53-8.11,20.86,4.58,35.66,19.29,37.05,41.17.75,11.72-1.97,22.26-4.36,33.54,8.03,3.44,10.85,13.48,4.83,20.25-2.92,3.29-5.58,3.76-9.62,4.88-1.68,8.76-1.93,17.43-6.88,25.17-5.15,8.07-14.91,12.85-22.62,18.17l-.18,7.16c14.4,5.11,30.14,8.52,44.34,13.96,12.72,4.87,23.68,13.93,30.06,26.09.77,1.47,3.21,6.67,3.28,8,.04.75-.05,1.06-.45,1.69-.35.55-4.84,4.46-5.78,5.28-48.03,41.69-119.48,45.24-172.13,9.94-5.86-3.93-16.39-11.48-19.81-16.91Z"/>
    </g>
  </g>
</svg>